# Blender 3.6.0
# www.blender.org
mtllib ArcheryRange_Model.mtl
o ArcheryRange_Model
v 3.939181 0.412682 0.209754
v 3.839751 0.565416 0.633042
v 3.958507 0.934147 0.882685
v 4.225884 1.302878 0.812442
v 4.485255 1.455612 0.463464
v 4.584686 1.302879 0.040176
v 4.465930 0.934146 -0.209466
v 4.198552 0.565417 -0.139225
v 4.164151 0.965801 0.326169
v 3.741411 0.034967 0.117866
v 3.569959 0.298331 0.847760
v 3.774737 0.934145 1.278225
v 4.235782 1.569963 1.157107
v 4.683027 1.833326 0.555349
v 4.854477 1.569962 -0.174542
v 4.649703 0.934147 -0.605009
v 4.188655 0.298331 -0.483888
v 3.742915 0.105261 0.992404
v 3.963952 0.791569 1.457055
v 4.461613 1.477879 1.326319
v 4.944373 1.762158 0.676776
v 5.129440 1.477879 -0.111078
v 4.908403 0.791568 -0.575731
v 4.410742 0.105262 -0.444993
v 5.677028 -0.012312 1.017173
v 4.797572 1.684343 0.726367
v 4.887600 1.684343 0.532593
v 5.551661 -0.012313 1.076724
v 5.641688 -0.012313 0.882949
v 4.262778 0.408144 -2.541609
v 4.316052 0.560877 -2.110075
v 4.513896 0.929609 -1.916990
v 4.740416 1.298340 -2.075459
v 4.862920 1.451073 -2.492656
v 4.809647 1.298340 -2.924190
v 4.611803 0.929609 -3.117274
v 4.385282 0.560878 -2.958804
v 4.514141 0.961262 -2.510285
v 4.045425 0.030429 -2.559338
v 4.137288 0.293793 -1.815229
v 4.478438 0.929609 -1.482285
v 4.869035 1.565424 -1.755541
v 5.080273 1.828789 -2.474926
v 4.988411 1.565424 -3.219037
v 4.647263 0.929609 -3.551980
v 4.256665 0.293792 -3.278724
v 4.349626 0.100723 -1.739412
v 4.717867 0.787031 -1.380027
v 5.139483 1.473340 -1.674983
v 5.367497 1.757619 -2.451497
v 5.268341 1.473340 -3.254698
v 4.900099 0.787030 -3.614083
v 4.478482 0.100723 -3.319128
v 6.172692 -0.016851 -2.385818
v 5.246944 1.679805 -2.354144
v 5.264315 1.679805 -2.567104
v 6.075696 -0.016851 -2.286542
v 6.093066 -0.016852 -2.499504
v 3.905105 0.394269 -5.229070
v 4.147128 0.547004 -4.867842
v 4.410755 0.915735 -4.784628
v 4.541559 1.284466 -5.028175
v 4.462917 1.437200 -5.455812
v 4.220896 1.284467 -5.817040
v 3.957268 0.915734 -5.900254
v 3.826463 0.547005 -5.656708
v 4.143614 0.947389 -5.314378
v 3.703083 0.016555 -5.146951
v 4.120411 0.279919 -4.524073
v 4.574994 0.915733 -4.380588
v 4.800545 1.551551 -4.800539
v 4.664938 1.814914 -5.537934
v 4.247612 1.551550 -6.160809
v 3.793030 0.915735 -6.304299
v 3.567479 0.279919 -5.884344
v 4.344132 0.086849 -4.552077
v 4.834815 0.773156 -4.397195
v 5.078279 1.459466 -4.850498
v 4.931905 1.743745 -5.646449
v 4.481437 1.459466 -6.318790
v 3.990753 0.773156 -6.473675
v 3.747290 0.086850 -6.020370
v 5.680306 -0.030725 -5.950665
v 4.868156 1.665931 -5.505218
v 4.787696 1.665931 -5.703157
v 5.638453 -0.030725 -5.818333
v 5.557993 -0.030725 -6.016272
v 9.142868 9.929562 8.945022
v 2.199647 9.929562 8.965569
v 9.122791 9.929561 2.160518
v 2.179569 9.929561 2.181064
v 9.142868 0.026504 8.945022
v 2.199648 0.026505 8.965568
v 2.179571 0.026504 2.181062
v 9.973366 9.406487 9.770618
v 1.374050 9.406487 9.796067
v 1.349071 9.406486 1.355466
v 9.948388 9.406486 1.330019
v 9.973366 12.196924 9.770617
v 1.374049 12.196920 9.796065
v 1.349072 12.196920 1.355465
v 9.948387 12.196922 1.330019
v 10.439665 12.492975 10.234169
v 0.910500 12.492975 10.262369
v 0.882771 12.492973 0.891917
v 10.411937 12.492974 0.863720
v 10.911831 16.446268 10.703549
v 0.441118 16.446270 10.734534
v 0.410604 16.446268 0.422537
v 10.881316 16.446268 0.391552
v 9.195686 16.446266 8.997530
v 2.147138 16.446268 9.018389
v 2.126749 16.446266 2.128556
v 9.175300 16.446268 2.107699
v 9.195688 13.044991 8.997531
v 1.621242 13.044992 9.019947
v 1.600854 13.044992 2.130112
v 9.175301 13.044993 2.107698
v 9.142868 3.078660 8.945021
v 9.122793 3.078660 2.160518
v 2.194750 4.988591 6.997022
v 2.199648 3.078660 8.965568
v 2.194744 0.026504 6.994980
v 2.197154 0.026504 8.421237
v 2.197157 4.988592 8.422276
v -3.710805 0.026504 8.438721
v -3.713214 0.026505 7.012463
v -3.710802 4.988592 8.439760
v -3.713209 4.988592 7.014505
v 6.629814 4.988592 2.166603
v 7.076218 0.026505 2.166573
v 8.341118 4.988591 2.163593
v 6.606702 0.026505 -8.993019
v 8.313135 0.026505 -8.996016
v 8.308094 6.659078 -8.995996
v 8.311049 4.988589 -7.239250
v 7.046147 0.026505 -7.236272
v -9.155141 6.655971 -8.944984
v -9.142872 -0.026504 -8.945024
v -9.139920 -0.026505 -7.188245
v -9.149830 4.935583 -7.188246
v -7.397325 -0.023397 -8.947835
v -7.404282 4.938689 -7.191059
v -7.394370 -0.023398 -7.191089
v -9.121887 4.935583 1.495328
v -9.111977 -0.026504 1.495298
v -7.376339 4.938690 1.492514
v -7.366427 -0.023397 1.492484
v 9.122791 0.026505 2.160516
v 8.083219 0.026504 2.163593
v 4.394535 4.181414 -5.337533
v -7.397514 4.181414 -5.274773
v 4.392837 4.178794 2.171228
v -3.728386 0.026504 2.198546
v 2.149292 0.026504 -8.051078
v 7.045938 0.026505 -8.065569
v 2.187794 2.067925 4.959765
v 2.187794 0.026505 4.959764
v 2.191570 2.067925 6.235982
v 2.191569 0.026505 6.235221
v 2.537376 2.067926 4.958730
v 2.537376 0.026505 4.958730
v 2.541153 2.067926 6.234947
v 2.541151 0.026505 6.234187
v 1.620853 11.551550 6.008627
v 1.363871 11.551551 6.009387
v 1.363873 10.055302 6.010181
v 1.361497 11.550013 5.207166
v 1.361480 10.047554 5.201380
v 1.620855 10.055302 6.009422
v 1.618463 10.047554 5.200620
v 1.618479 11.550013 5.206405
v 5.454307 11.551552 9.409275
v 6.231044 11.556883 9.781693
v 6.228993 10.055304 9.781699
v 5.455416 11.551550 9.783989
v 5.461573 10.055302 9.783969
v 6.229936 11.556884 9.406979
v 6.227883 10.055302 9.406985
v 5.460465 10.055304 9.409258
v 5.047722 10.047553 1.691065
v 5.962583 11.550014 1.341814
v 5.965883 10.027719 1.341804
v 5.051615 11.550014 1.344509
v 5.046697 10.047555 1.344524
v 5.966909 10.027719 1.688344
v 5.052640 11.550014 1.691048
v 5.963608 11.550013 1.688354
v 4.928337 1.038843 -4.393342
v -9.152189 6.655969 -7.188237
v -7.409595 6.659077 -8.947799
v -7.406641 6.659076 -7.191052
v 6.596790 4.988592 -8.992990
v 6.599743 4.988590 -7.236242
v -7.407236 4.938691 -8.947806
v 6.596790 6.659078 -8.992989
v 8.311048 6.659078 -7.239249
v 6.599743 6.659078 -7.236240
vn -0.7544 0.5805 -0.3066
vn -0.8037 0.5320 -0.2667
vn -0.8398 0.4627 -0.2840
vn -0.8409 0.4151 -0.3473
vn -0.8075 0.4164 -0.4179
vn -0.7597 0.4641 -0.4554
vn -0.7245 0.5309 -0.4396
vn -0.7218 0.5793 -0.3786
vn -0.7854 0.5000 -0.3649
vn 0.0057 -0.1911 -0.9815
vn 0.3578 0.9020 -0.2414
vn -0.4111 0.4492 0.7932
vn 0.3410 0.4492 -0.8258
vn 0.0462 0.9020 0.4292
vn -0.7464 -0.1911 0.6374
vn -0.4049 -0.3307 -0.8524
vn 0.8357 0.2731 -0.4764
vn -0.8139 0.5805 -0.0265
vn -0.8463 0.5320 0.0280
vn -0.8862 0.4627 0.0243
vn -0.9091 0.4151 -0.0347
vn -0.9022 0.4164 -0.1125
vn -0.8704 0.4641 -0.1642
vn -0.8319 0.5309 -0.1615
vn -0.8083 0.5793 -0.1053
vn -0.8632 0.5000 -0.0704
vn -0.3345 -0.1911 -0.9228
vn 0.2521 0.9020 -0.3504
vn -0.1111 0.4492 0.8865
vn 0.0340 0.4492 -0.8928
vn 0.1920 0.9020 0.3866
vn -0.4796 -0.1911 0.8564
vn -0.6750 -0.3307 -0.6595
vn 0.6191 0.2731 -0.7363
vn -0.7385 0.5805 0.3431
vn -0.7429 0.5320 0.4064
vn -0.7801 0.4627 0.4210
vn -0.8272 0.4151 0.3787
vn -0.8561 0.4164 0.3061
vn -0.8510 0.4641 0.2456
vn -0.8154 0.5309 0.2307
vn -0.7690 0.5793 0.2703
vn -0.8023 0.5000 0.3261
vn -0.7144 -0.1911 -0.6731
vn 0.0671 0.9020 -0.4264
vn 0.3003 0.4492 0.8414
vn -0.3719 0.4492 -0.8123
vn 0.3456 0.9020 0.2586
vn -0.0422 -0.1911 0.9807
vn -0.8998 -0.3307 -0.2846
vn 0.2208 0.2731 -0.9363
vn -1.0000 0.0003 0.0017
vn 0.0030 -0.0000 1.0000
vn -1.0000 -0.0016 0.0030
vn -0.0030 -0.0000 -1.0000
vn 0.0029 -0.1182 0.9930
vn 1.0000 0.0041 -0.0030
vn -0.0000 1.0000 -0.0000
vn -0.9930 -0.1182 0.0029
vn -0.0029 -0.1182 -0.9930
vn -1.0000 -0.0000 0.0030
vn -1.0000 -0.0000 0.0042
vn -1.0000 -0.0000 0.0046
vn -0.0030 0.0004 -1.0000
vn -1.0000 -0.0000 0.0017
vn 0.0030 -0.0002 1.0000
vn -0.0018 -0.0000 -1.0000
vn 0.0018 -0.0000 1.0000
vn -0.0016 -0.0000 -1.0000
vn -0.9960 -0.0896 0.0032
vn -1.0000 -0.0020 0.0017
vn -0.0018 1.0000 -0.0000
vn 0.0031 0.0003 1.0000
vn -0.0032 -0.0000 -1.0000
vn 0.0016 -0.0000 1.0000
vn -1.0000 -0.0020 0.0032
vn -0.0020 0.9211 0.3892
vn -0.3404 0.9403 0.0003
vn -0.0006 -1.0000 -0.0000
vn -1.0000 0.0003 0.0030
vn -1.0000 -0.0000 0.0027
vn -1.0000 0.0016 0.0030
vn -0.0000 1.0000 -0.0096
vn -0.0030 -0.0005 -1.0000
vn 0.0030 -0.0039 1.0000
vn -1.0000 -0.0000 0.0032
vn -1.0000 0.0014 0.0030
vn 0.0216 0.9998 -0.0001
vn -1.0000 -0.0022 0.0030
vn 1.0000 -0.0033 -0.0030
vn 0.0016 -0.8435 0.5371
vn -0.5371 -0.8435 0.0016
vn -0.0016 -0.8435 -0.5371
vn -1.0000 -0.0014 0.0017
vn -1.0000 -0.0002 0.0030
vn -0.0018 -0.0003 -1.0000
vn -0.0036 1.0000 -0.0000
vn -0.4112 0.4492 0.7932
vn -0.1748 -0.2730 -0.9460
vn 0.9126 0.3307 -0.2403
vn -0.4915 -0.2731 -0.8269
vn 0.7730 0.3307 -0.5414
vn 0.0672 0.9020 -0.4264
vn -0.8115 -0.2730 -0.5167
vn 0.4461 0.3307 -0.8316
vn -1.0000 -0.0018 0.0012
vn 0.0032 -0.0000 1.0000
vn 0.0020 0.9300 0.3675
vn -0.3429 0.9394 0.0011
vn -0.0013 -1.0000 -0.0000
vn -1.0000 0.0001 0.0033
vn -1.0000 0.0015 0.0029
vn 0.5404 -0.0000 -0.8414
vn -0.0030 0.0002 -1.0000
vn -0.0030 -0.0003 -1.0000
vn -0.0039 -0.0000 -1.0000
vn -0.0043 0.0009 -1.0000
vt 0.064453 0.941406
vt 0.310547 0.691406
vt 0.812500 0.552734
vt 0.816406 0.566406
vt 0.559392 0.939049
vt 0.562082 0.935605
vt 0.306236 0.691017
vt 0.307786 0.691017
vt 0.561293 0.941759
vt 0.306174 0.691420
vt 0.681447 0.565108
vt 0.564453 0.931641
vt 0.314552 0.692910
vt 0.305918 0.691406
vt 0.313001 0.691360
vt 0.689453 0.937500
vt 0.307863 0.691914
vt 0.436516 0.939050
vt 0.565182 0.935605
vt 0.312500 0.500000
vt 0.689198 0.442643
vt 0.564779 0.934803
vt 0.309336 0.692567
vt 0.935547 0.931641
vt 0.306174 0.688320
vt 0.306789 0.815074
vt 0.561293 0.944220
vt 0.309824 0.693359
vt 0.311777 0.691406
vt 0.307871 0.689453
vt 0.558981 0.940256
vt 0.563177 0.940612
s 0
usemtl CivilizationColor_Material
f 99/7/53 176/7/53 174/7/53
f 100/8/54 168/8/54 166/8/54
f 101/7/55 182/7/55 184/7/55
f 176/10/57 180/10/57 173/10/57
f 175/10/58 180/10/58 177/10/58
f 134/13/67 193/13/67 135/13/67
f 194/14/68 197/14/68 198/14/68
f 195/15/69 139/15/69 138/15/69
f 141/15/71 139/15/71 140/15/71
f 143/17/77 151/17/77 194/17/77
f 130/17/78 151/17/78 153/17/78
f 100/23/81 167/23/81 96/23/81
f 96/8/82 169/8/82 97/8/82
f 167/10/83 171/10/83 169/10/83
f 167/25/84 165/25/84 170/25/84
f 169/25/85 172/25/85 168/25/85
f 169/8/86 101/8/86 97/8/86
f 99/7/53 175/7/53 95/7/53
f 95/7/53 177/7/53 96/7/53
f 96/7/53 176/7/53 100/7/53
f 175/10/87 178/10/87 179/10/87
f 98/7/55 182/7/55 102/7/55
f 97/7/55 183/7/55 98/7/55
f 101/7/55 185/7/55 97/7/55
f 185/25/88 186/25/88 183/25/88
f 183/26/89 188/26/89 182/26/89
f 185/10/90 187/10/90 181/10/90
f 191/28/72 190/28/72 192/28/72
f 143/29/75 190/29/75 141/29/75
f 138/29/94 141/29/94 190/29/94
f 195/29/69 138/29/69 191/29/69
f 194/14/65 196/14/65 193/14/65
f 135/30/67 193/30/67 196/30/67
f 197/30/58 196/30/58 198/30/58
f 99/7/53 100/7/53 176/7/53
f 100/8/54 101/8/54 168/8/54
f 101/7/55 102/7/55 182/7/55
f 176/10/57 177/10/57 180/10/57
f 175/10/58 179/10/58 180/10/58
f 134/13/67 133/13/67 193/13/67
f 194/14/68 136/14/68 197/14/68
f 195/15/69 142/15/69 139/15/69
f 141/15/106 138/15/106 139/15/106
f 143/17/108 152/17/108 151/17/108
f 130/17/109 194/17/109 151/17/109
f 100/23/81 166/23/81 167/23/81
f 96/8/112 167/8/112 169/8/112
f 167/10/83 170/10/83 171/10/83
f 167/25/84 166/25/84 165/25/84
f 169/25/85 171/25/85 172/25/85
f 169/8/86 168/8/86 101/8/86
f 99/7/53 174/7/53 175/7/53
f 95/7/53 175/7/53 177/7/53
f 96/7/53 177/7/53 176/7/53
f 175/10/87 174/10/87 178/10/87
f 98/7/55 183/7/55 182/7/55
f 97/7/55 185/7/55 183/7/55
f 101/7/55 184/7/55 185/7/55
f 185/25/88 181/25/88 186/25/88
f 183/26/89 186/26/89 188/26/89
f 185/10/90 184/10/90 187/10/90
f 191/28/72 138/28/72 190/28/72
f 143/29/75 192/29/75 190/29/75
f 194/14/65 198/14/65 196/14/65
f 197/30/58 135/30/58 196/30/58
usemtl ColorPalette_Material
f 5/1/1 9/1/1 4/1/1
f 3/1/2 4/1/2 9/1/2
f 2/1/3 3/1/3 9/1/3
f 1/1/4 2/1/4 9/1/4
f 8/1/5 1/1/5 9/1/5
f 8/1/6 9/1/6 7/1/6
f 7/1/7 9/1/7 6/1/7
f 6/1/8 9/1/8 5/1/8
f 3/2/9 13/2/9 4/2/9
f 1/2/9 11/2/9 2/2/9
f 8/2/9 10/2/9 1/2/9
f 7/2/9 15/2/9 16/2/9
f 5/2/9 13/2/9 14/2/9
f 2/2/9 12/2/9 3/2/9
f 7/2/9 17/2/9 8/2/9
f 6/2/9 14/2/9 15/2/9
f 17/3/10 23/3/10 24/3/10
f 14/3/11 22/3/11 15/3/11
f 12/3/12 20/3/12 13/3/12
f 15/3/13 23/3/13 16/3/13
f 13/3/14 21/3/14 14/3/14
f 12/3/15 18/3/15 19/3/15
f 28/4/16 21/4/16 25/4/16
f 21/4/17 29/4/17 27/4/17
f 34/1/18 38/1/18 33/1/18
f 32/1/19 33/1/19 38/1/19
f 31/1/20 32/1/20 38/1/20
f 30/1/21 31/1/21 38/1/21
f 37/1/22 30/1/22 38/1/22
f 37/1/23 38/1/23 36/1/23
f 36/1/24 38/1/24 35/1/24
f 35/1/25 38/1/25 34/1/25
f 32/2/26 42/2/26 33/2/26
f 31/2/26 39/2/26 40/2/26
f 37/2/26 39/2/26 30/2/26
f 36/2/26 44/2/26 45/2/26
f 33/2/26 43/2/26 34/2/26
f 32/2/26 40/2/26 41/2/26
f 36/2/26 46/2/26 37/2/26
f 35/2/26 43/2/26 44/2/26
f 46/3/27 52/3/27 53/3/27
f 43/3/28 51/3/28 44/3/28
f 41/3/29 49/3/29 42/3/29
f 44/3/30 52/3/30 45/3/30
f 43/3/31 49/3/31 50/3/31
f 40/3/32 48/3/32 41/3/32
f 57/4/33 50/4/33 54/4/33
f 50/4/34 58/4/34 56/4/34
f 63/1/35 67/1/35 62/1/35
f 61/1/36 62/1/36 67/1/36
f 60/1/37 61/1/37 67/1/37
f 59/1/38 60/1/38 67/1/38
f 66/1/39 59/1/39 67/1/39
f 66/1/40 67/1/40 65/1/40
f 65/1/41 67/1/41 64/1/41
f 64/1/42 67/1/42 63/1/42
f 61/2/43 71/2/43 62/2/43
f 59/2/43 69/2/43 60/2/43
f 66/2/43 68/2/43 59/2/43
f 64/2/43 74/2/43 65/2/43
f 63/2/43 71/2/43 72/2/43
f 60/2/43 70/2/43 61/2/43
f 65/2/43 75/2/43 66/2/43
f 64/2/43 72/2/43 73/2/43
f 75/3/44 81/3/44 82/3/44
f 72/3/45 80/3/45 73/3/45
f 70/3/46 78/3/46 71/3/46
f 74/3/47 80/3/47 81/3/47
f 71/3/48 79/3/48 72/3/48
f 69/3/49 77/3/49 70/3/49
f 86/4/50 79/4/50 83/4/50
f 79/4/51 87/4/51 85/4/51
f 125/5/52 89/5/52 121/5/52
f 88/6/53 122/6/53 119/6/53
f 104/9/56 107/9/56 108/9/56
f 107/9/58 114/9/58 111/9/58
f 104/9/59 109/9/59 105/9/59
f 105/9/60 110/9/60 106/9/60
f 113/11/53 118/11/53 114/11/53
f 108/9/58 113/9/58 109/9/58
f 110/9/58 113/9/58 114/9/58
f 107/9/58 112/9/58 108/9/58
f 115/11/58 117/11/58 116/11/58
f 112/11/55 115/11/55 116/11/55
f 111/11/61 118/11/61 115/11/61
f 119/6/53 93/6/53 92/6/53
f 123/6/62 159/6/62 160/6/62
f 124/6/63 122/6/63 125/6/63
f 123/12/64 129/12/64 121/12/64
f 129/12/65 126/12/65 128/12/65
f 124/12/66 128/12/66 126/12/66
f 125/12/58 129/12/58 128/12/58
f 130/16/70 137/16/70 131/16/70
f 130/12/58 136/12/58 194/12/58
f 143/12/72 145/12/72 147/12/72
f 194/16/73 144/16/73 137/16/73
f 133/12/74 195/12/74 193/12/74
f 147/12/75 146/12/75 148/12/75
f 140/12/76 145/12/76 141/12/76
f 94/18/58 127/18/58 123/18/58
f 131/18/58 155/18/58 94/18/58
f 159/19/64 164/19/64 160/19/64
f 123/20/79 158/20/79 94/20/79
f 121/6/80 157/6/80 159/6/80
f 94/6/61 157/6/61 91/6/61
f 164/21/61 161/21/61 162/21/61
f 160/22/58 162/22/58 158/22/58
f 157/19/53 162/19/53 161/19/53
f 172/24/61 170/24/61 165/24/61
f 173/24/53 179/24/53 178/24/53
f 181/24/55 188/24/55 186/24/55
f 100/27/91 103/27/91 104/27/91
f 100/27/92 105/27/92 101/27/92
f 101/27/93 106/27/93 102/27/93
f 91/31/95 121/31/95 89/31/95
f 90/32/96 132/32/96 130/6/96
f 194/12/97 195/12/97 143/12/97
f 3/2/9 12/2/9 13/2/9
f 1/2/9 10/2/9 11/2/9
f 8/2/9 17/2/9 10/2/9
f 7/2/9 6/2/9 15/2/9
f 5/2/9 4/2/9 13/2/9
f 2/2/9 11/2/9 12/2/9
f 7/2/9 16/2/9 17/2/9
f 6/2/9 5/2/9 14/2/9
f 17/3/10 16/3/10 23/3/10
f 14/3/11 21/3/11 22/3/11
f 12/3/98 19/3/98 20/3/98
f 15/3/13 22/3/13 23/3/13
f 13/3/14 20/3/14 21/3/14
f 12/3/15 11/3/15 18/3/15
f 28/4/99 26/4/99 21/4/99
f 21/4/100 25/4/100 29/4/100
f 32/2/26 41/2/26 42/2/26
f 31/2/26 30/2/26 39/2/26
f 37/2/26 46/2/26 39/2/26
f 36/2/26 35/2/26 44/2/26
f 33/2/26 42/2/26 43/2/26
f 32/2/26 31/2/26 40/2/26
f 36/2/26 45/2/26 46/2/26
f 35/2/26 34/2/26 43/2/26
f 46/3/27 45/3/27 52/3/27
f 43/3/28 50/3/28 51/3/28
f 41/3/29 48/3/29 49/3/29
f 44/3/30 51/3/30 52/3/30
f 43/3/31 42/3/31 49/3/31
f 40/3/32 47/3/32 48/3/32
f 57/4/101 55/4/101 50/4/101
f 50/4/102 54/4/102 58/4/102
f 61/2/43 70/2/43 71/2/43
f 59/2/43 68/2/43 69/2/43
f 66/2/43 75/2/43 68/2/43
f 64/2/43 73/2/43 74/2/43
f 63/2/43 62/2/43 71/2/43
f 60/2/43 69/2/43 70/2/43
f 65/2/43 74/2/43 75/2/43
f 64/2/43 63/2/43 72/2/43
f 75/3/44 74/3/44 81/3/44
f 72/3/103 79/3/103 80/3/103
f 70/3/46 77/3/46 78/3/46
f 74/3/47 73/3/47 80/3/47
f 71/3/48 78/3/48 79/3/48
f 69/3/49 76/3/49 77/3/49
f 86/4/104 84/4/104 79/4/104
f 79/4/105 83/4/105 87/4/105
f 125/5/63 122/5/63 89/5/63
f 88/6/53 89/6/53 122/6/53
f 104/9/56 103/9/56 107/9/56
f 107/9/58 110/9/58 114/9/58
f 104/9/59 108/9/59 109/9/59
f 105/9/60 109/9/60 110/9/60
f 113/11/53 117/11/53 118/11/53
f 108/9/58 112/9/58 113/9/58
f 110/9/58 109/9/58 113/9/58
f 107/9/58 111/9/58 112/9/58
f 115/11/58 118/11/58 117/11/58
f 112/11/55 111/11/55 115/11/55
f 111/11/61 114/11/61 118/11/61
f 119/6/53 122/6/53 93/6/53
f 123/6/62 121/6/62 159/6/62
f 124/6/63 93/6/63 122/6/63
f 123/12/64 127/12/64 129/12/64
f 129/12/65 127/12/65 126/12/65
f 124/12/66 125/12/66 128/12/66
f 125/12/58 121/12/58 129/12/58
f 130/16/70 194/16/70 137/16/70
f 130/12/58 132/12/58 136/12/58
f 143/12/72 141/12/72 145/12/72
f 194/16/107 143/16/107 144/16/107
f 133/12/74 142/12/74 195/12/74
f 147/12/75 145/12/75 146/12/75
f 140/12/76 146/12/76 145/12/76
f 94/18/58 154/18/58 127/18/58
f 131/18/58 156/18/58 155/18/58
f 159/19/64 163/19/64 164/19/64
f 123/20/110 160/20/110 158/20/110
f 121/6/111 91/6/111 157/6/111
f 94/6/61 158/6/61 157/6/61
f 164/21/61 163/21/61 161/21/61
f 160/22/58 164/22/58 162/22/58
f 157/19/53 158/19/53 162/19/53
f 172/24/61 171/24/61 170/24/61
f 173/24/53 180/24/53 179/24/53
f 181/24/55 187/24/55 188/24/55
f 100/27/91 99/27/91 103/27/91
f 100/27/92 104/27/92 105/27/92
f 101/27/93 105/27/93 106/27/93
f 94/6/55 91/32/55 90/32/55
f 90/32/113 120/6/113 149/6/113
f 149/6/114 150/6/114 132/32/114
f 130/6/115 131/6/115 94/6/115
f 90/32/116 149/6/116 132/32/116
f 130/6/117 94/6/117 90/32/117
f 194/12/97 193/12/97 195/12/97
