# Blender 3.6.0
# www.blender.org
mtllib Barracks_Model.mtl
o Baarracks_Model
v -3.794359 0.012199 0.652879
v -3.794359 2.286260 0.652879
v -3.794359 0.012199 -0.652875
v -3.794359 2.286260 -0.652875
v -3.794359 0.012199 -2.002237
v -3.794359 0.012199 2.002240
v -3.794359 3.917421 2.002240
v -3.794359 3.917421 -2.002237
v 4.588092 3.917421 -2.002237
v -1.605372 0.012199 2.002240
v -1.605372 0.012199 -2.002237
v 4.588092 3.917421 2.002240
v -3.405957 0.012199 -0.652875
v -3.405957 0.012199 0.652879
v -3.405957 2.286260 0.652879
v -3.405957 2.286260 -0.652875
v 2.399105 4.883334 2.002240
v 2.399105 4.883334 -2.002237
v -1.605372 4.883334 2.002240
v -1.605373 4.883334 -2.002237
v 1.049744 0.012199 4.191227
v 1.049744 2.286260 4.191227
v -0.256011 0.012199 4.191227
v -0.256011 2.286260 4.191227
v 1.049743 0.012199 -4.191224
v 1.049743 2.286260 -4.191224
v -0.256011 0.012199 -4.191224
v -0.256011 2.286260 -4.191224
v -1.605372 0.012199 4.191227
v 2.399105 0.012199 4.191227
v 2.399105 3.917421 4.191227
v -1.605372 3.917421 4.191227
v -1.605373 3.917421 -4.191224
v -1.605373 0.012199 -4.191224
v 2.399105 0.012199 -4.191224
v 2.399105 3.917421 -4.191224
v -0.256011 0.012199 3.205078
v 1.049744 0.012199 3.205078
v 1.049744 2.286260 3.205078
v -0.256011 0.012199 -3.253008
v 1.049743 0.012199 -3.253008
v 1.049743 2.286260 -3.253008
v 5.235335 0.006825 -5.309210
v 5.235335 1.811785 -5.410834
v 5.235335 0.006825 -5.681765
v 5.235335 1.811785 -5.600012
v 5.626981 0.006825 -5.309212
v 5.626981 2.270691 -5.309212
v 5.626981 0.006825 -5.681763
v 5.626981 2.270691 -5.681763
v 5.357212 1.615300 -5.309210
v 5.532863 1.615300 -5.309210
v 5.532863 1.428468 -5.309210
v 5.357212 1.428468 -5.309210
v 5.357213 1.428468 -4.563847
v 5.357213 1.615300 -4.563847
v 5.532864 1.615300 -4.563847
v 5.235335 1.603363 -5.600012
v 5.235335 1.603363 -5.410834
v 5.235335 2.270691 -5.309210
v 5.235335 2.270691 -5.681765
v 4.590550 1.603363 -5.600012
v 4.590550 1.603363 -5.410834
v 4.590550 1.811785 -5.410834
v 4.590550 1.811785 -5.600012
v -5.219899 0.001032 5.727088
v -5.219899 1.603952 5.828713
v -5.219899 1.603952 6.017890
v -5.611547 0.001032 5.727087
v -5.611547 2.264898 5.727087
v -5.611547 0.001032 6.099643
v -5.611547 2.264898 6.099643
v -5.341776 1.785586 5.727088
v -5.517426 1.785586 5.727090
v -5.517426 1.598754 5.727090
v -5.341776 1.598754 5.727088
v -5.341776 1.598754 4.981724
v -5.341776 1.785586 4.981724
v -5.517427 1.785586 4.981725
v -5.517427 1.598754 4.981725
v -5.219899 1.395531 5.828713
v -5.219899 2.264898 5.727088
v -5.219899 2.264898 6.099643
v -4.575114 1.395531 5.828712
v -4.575114 1.603952 5.828712
v -4.575114 1.603952 6.017890
v 5.196225 0.028431 5.470757
v 5.297848 0.991611 5.470757
v 5.568781 0.028431 5.470757
v 5.487027 0.991611 5.470757
v 5.196225 0.028431 5.862403
v 5.196225 2.292297 5.862403
v 5.568779 0.028431 5.862403
v 5.568779 2.292297 5.862403
v 5.196225 1.646067 5.592633
v 5.196225 1.646067 5.768284
v 5.196225 1.459235 5.768284
v 5.196225 1.459235 5.592633
v 4.450861 1.459235 5.592634
v 4.450861 1.646067 5.592634
v 4.450861 1.646067 5.768284
v 4.450861 1.459235 5.768284
v 5.487027 0.783189 5.470757
v 5.297848 0.783189 5.470757
v 5.196225 2.292297 5.470757
v 5.568781 2.292297 5.470757
v 5.297848 0.783189 4.825973
v 5.297848 0.991611 4.825973
v 5.487027 0.991611 4.825972
v -5.217878 0.028327 -5.509058
v -5.319499 1.261217 -5.509058
v -5.590431 0.028327 -5.509058
v -5.508679 1.261217 -5.509058
v -5.217878 2.292193 -5.900704
v -5.590432 0.028327 -5.900704
v -5.590432 2.292193 -5.900704
v -5.270071 1.749635 -5.607448
v -5.270071 1.749635 -5.783097
v -5.270071 1.562803 -5.607448
v -4.524706 1.562803 -5.607448
v -4.524706 1.749635 -5.607448
v -4.524706 1.749635 -5.783097
v -5.508679 1.052796 -5.509058
v -5.319499 1.052796 -5.509058
v -5.217878 2.292193 -5.509058
v -5.590431 2.292193 -5.509058
v -5.508679 1.052796 -4.864272
v -5.319500 1.052796 -4.864272
v -5.319500 1.261217 -4.864272
v -5.508679 1.261217 -4.864272
v -6.996592 5.169393 7.236230
v -8.707893 5.169393 7.239240
v -7.003550 0.054639 8.993004
v -8.709981 0.054638 8.996000
v -8.704939 6.662281 8.995982
v -6.996592 0.054638 7.236260
v 8.758257 6.659079 8.944963
v 8.745988 0.000000 8.945003
v 8.752944 5.114756 7.188229
v 7.000444 0.003202 8.947815
v 7.007401 5.117957 7.191042
v 6.997488 0.003201 7.191072
v 8.755303 6.659077 7.188220
v 7.012714 6.662281 8.947779
v 7.009760 6.662279 7.191036
v -6.993639 5.169394 8.992974
v 7.010356 5.117958 8.947786
v -6.993638 6.662279 8.992973
v -8.707892 6.662279 7.239238
v -6.996592 6.662281 7.236228
v 7.003552 0.054640 -8.992998
v 8.709983 0.054639 -8.995993
v 8.704940 6.662279 -8.995972
v 8.707897 5.169393 -7.239231
v 6.996595 0.054639 -7.236253
v -8.758255 6.659078 -8.944963
v -8.745988 0.000000 -8.945003
v -8.743034 -0.000001 -7.188229
v -8.752945 5.114756 -7.188228
v -7.000443 0.003203 -8.947814
v -7.007400 5.117957 -7.191041
v -6.997488 0.003202 -7.191072
v -8.715091 -0.000000 7.236260
v -8.755304 6.659077 -7.188220
v -7.012713 6.662281 -8.947778
v -7.009758 6.662279 -7.191033
v 6.993641 5.169394 -8.992968
v 6.996595 5.169393 -7.236223
v -7.010355 5.117958 -8.947785
v 6.993641 6.662280 -8.992967
v 8.707897 6.662279 -7.239230
v 6.996595 6.662281 -7.236223
v -7.003545 5.136303 -4.566236
v -4.682260 0.043960 7.226879
v -8.736876 5.134242 -4.563352
v -8.722417 5.151779 4.756156
v -7.000076 5.152812 4.753211
v -8.724099 -0.000001 4.754138
v -4.680202 5.158714 7.226849
v -7.000076 0.001032 4.753211
v -7.003546 0.002059 -4.566236
v -8.736876 -0.000001 -4.563352
v -4.687160 0.043961 8.983622
v -4.677248 5.158716 8.983593
v 4.420230 0.012200 8.955720
v 4.430142 5.126956 8.955691
v 4.419009 0.012199 7.198977
v 4.427188 5.126955 7.198947
v -4.718333 0.011579 -7.198430
v -4.719674 0.011580 -8.955173
v -4.729586 5.126335 -8.955144
v -4.726631 5.126334 -7.198400
v 4.382380 0.045030 -7.227812
v 4.377575 5.159786 -8.984528
v 4.380528 5.159784 -7.227783
v 4.387487 0.045031 -8.984557
v 8.716201 5.159320 -4.579616
v 6.998587 5.159911 -4.576643
v 6.996758 0.045157 -4.576662
v 8.745198 5.124154 4.706465
v 7.005543 5.126805 4.709312
v 6.997488 0.012049 4.709322
v 4.427187 4.340609 4.713264
v -4.680202 4.345947 4.748520
v -4.726631 4.345948 -4.573594
v 4.382522 4.340609 -4.576643
v 4.588092 0.012199 -2.002237
v 4.588092 0.012199 2.002240
v 2.399105 0.012199 2.002240
v 2.399105 0.012199 -2.002237
v 8.745198 0.009398 4.706465
v 8.716201 0.045157 -4.579616
vn -0.4037 0.9149 -0.0000
vn -1.0000 -0.0000 -0.0000
vn -0.0000 0.9149 0.4037
vn -0.0000 1.0000 -0.0000
vn 0.4037 0.9149 -0.0000
vn -0.0000 -0.0000 1.0000
vn -0.0000 -0.0000 -1.0000
vn -0.0000 0.9149 -0.4037
vn 0.0018 -0.0000 1.0000
vn -0.0018 -0.0000 -1.0000
vn 0.0016 -0.0000 1.0000
vn -1.0000 -0.0000 0.0017
vn -0.0031 -0.0000 -1.0000
vn 0.0031 -0.0000 1.0000
vn 0.0018 1.0000 -0.0000
vn -0.0016 -0.0000 -1.0000
vn -1.0000 0.0015 0.0017
vn 0.0035 1.0000 -0.0000
vn -1.0000 0.0004 0.0001
vn -0.0000 1.0000 0.0036
vn -1.0000 -0.0019 0.0017
vn -0.0000 1.0000 -0.0067
vn 0.0032 -0.0000 1.0000
vn -0.0032 -0.0000 -1.0000
vn -1.0000 0.0014 0.0058
vn -0.0018 1.0000 -0.0000
vn -1.0000 -0.0015 0.0017
vn -0.0037 1.0000 -0.0000
vn -1.0000 0.0014 0.0029
vn -1.0000 -0.0000 0.0061
vn -0.0012 1.0000 -0.0070
vn 0.0017 -0.0000 1.0000
vn -0.0005 0.0004 -1.0000
vn 0.0046 1.0000 -0.0000
vn 0.0040 -0.0000 1.0000
vn -0.0041 -0.0000 -1.0000
vn -1.0000 0.0016 0.0017
vn -1.0000 0.0019 -0.0000
vn 0.0015 1.0000 0.0036
vn -1.0000 -0.0004 0.0017
vn 0.0024 0.9534 -0.3016
vn -0.2917 0.9565 0.0036
vn 0.0031 0.9502 -0.3116
vn 0.3285 0.9445 -0.0068
vn -0.2989 0.9543 0.0036
vn -0.0026 0.9554 0.2952
vn -0.0026 0.9585 0.2850
vn 0.3279 0.9447 -0.0071
vn -1.0000 -0.0000 0.0007
vn 0.0004 1.0000 0.0038
vn -1.0000 -0.0018 0.0014
vn -0.0006 1.0000 -0.0071
vn -1.0000 0.0003 0.0036
vn -1.0000 0.0008 0.0010
vn -1.0000 -0.0019 0.0023
vn -0.0018 1.0000 -0.0074
vn -0.0017 -0.0000 -1.0000
vn 0.0041 -0.0000 1.0000
vn -0.0040 -0.0000 -1.0000
vn -1.0000 0.0019 0.0007
vn -1.0000 0.0016 0.0008
vn 0.0018 1.0000 0.0038
vn -1.0000 -0.0019 -0.0029
vt 0.564453 0.937500
vt 0.689453 0.435547
vt 0.314453 0.691406
vt 0.685013 0.441406
vt 0.314552 0.692910
vt 0.305918 0.691406
vt 0.313001 0.691360
vt 0.307871 0.689453
vt 0.689453 0.937500
vt 0.564453 0.931641
vt 0.309824 0.693359
vt 0.311777 0.691406
vt 0.312549 0.687508
vt 0.564453 0.931641
vt 0.305946 0.691182
vt 0.564453 0.931641
vt 0.689453 0.937500
vt 0.562500 0.940430
vt 0.572266 0.934570
vt 0.321564 0.686539
vt 0.310039 0.688287
vt 0.567383 0.928223
vt 0.564453 0.931641
vt 0.689453 0.937500
s 0
usemtl ColorPalette_Material
f 7/1/1 20/1/1 8/1/1
f 2/1/2 6/1/2 7/1/2
f 2/1/2 8/1/2 4/1/2
f 4/1/2 5/1/2 3/1/2
f 15/2/2 13/2/2 14/2/2
f 17/1/3 32/1/3 31/1/3
f 1/1/4 13/1/4 3/1/4
f 20/3/4 17/3/4 18/3/4
f 17/1/5 9/1/5 18/1/5
f 3/1/6 16/1/6 4/1/6
f 2/1/7 14/1/7 1/1/7
f 36/1/8 20/1/8 18/1/8
f 11/1/2 33/1/2 34/1/2
f 22/1/6 30/1/6 31/1/6
f 22/1/6 32/1/6 24/1/6
f 24/1/6 29/1/6 23/1/6
f 28/1/7 34/1/7 33/1/7
f 26/1/7 33/1/7 36/1/7
f 26/1/7 35/1/7 25/1/7
f 21/1/4 37/1/4 23/1/4
f 25/1/2 42/1/2 26/1/2
f 27/1/4 41/1/4 25/1/4
f 22/1/2 38/1/2 21/1/2
f 8/1/7 11/1/7 5/1/7
f 10/1/2 32/1/2 19/1/2
f 7/1/6 10/1/6 19/1/6
f 54/4/6 60/4/6 43/4/6
f 51/4/6 48/4/6 60/4/6
f 53/4/6 48/4/6 52/4/6
f 54/4/6 47/4/6 53/4/6
f 54/4/2 56/4/2 51/4/2
f 52/4/4 56/4/4 57/4/4
f 45/4/7 50/4/7 49/4/7
f 48/4/4 61/4/4 60/4/4
f 59/4/2 45/4/2 43/4/2
f 44/4/2 61/4/2 46/4/2
f 59/4/2 60/4/2 44/4/2
f 58/4/2 61/4/2 45/4/2
f 63/4/2 65/4/2 62/4/2
f 58/4/7 65/4/7 46/4/7
f 46/4/4 64/4/4 44/4/4
f 44/4/6 63/4/6 59/4/6
f 71/4/2 70/4/2 69/4/2
f 74/4/2 80/4/2 75/4/2
f 76/4/7 82/4/7 66/4/7
f 73/4/7 70/4/7 82/4/7
f 75/4/7 70/4/7 74/4/7
f 76/4/7 69/4/7 75/4/7
f 79/4/7 77/4/7 80/4/7
f 73/4/4 79/4/4 74/4/4
f 82/4/4 72/4/4 83/4/4
f 67/4/4 86/4/4 85/4/4
f 67/4/7 84/4/7 81/4/7
f 93/4/6 92/4/6 91/4/6
f 96/4/6 102/4/6 97/4/6
f 98/4/2 105/4/2 87/4/2
f 95/4/2 92/4/2 105/4/2
f 97/4/2 92/4/2 96/4/2
f 98/4/2 91/4/2 97/4/2
f 101/4/2 99/4/2 102/4/2
f 98/4/7 100/4/7 95/4/7
f 95/4/4 101/4/4 96/4/4
f 105/4/4 94/4/4 106/4/4
f 104/4/7 89/4/7 87/4/7
f 88/4/7 106/4/7 90/4/7
f 88/4/7 87/4/7 105/4/7
f 90/4/7 89/4/7 103/4/7
f 90/4/4 108/4/4 88/4/4
f 88/4/2 107/4/2 104/4/2
f 119/4/6 121/4/6 117/4/6
f 117/4/4 122/4/4 118/4/4
f 112/4/2 116/4/2 115/4/2
f 114/4/4 126/4/4 125/4/4
f 124/4/6 112/4/6 110/4/6
f 111/4/6 126/4/6 113/4/6
f 111/4/6 110/4/6 125/4/6
f 113/4/6 112/4/6 123/4/6
f 128/4/6 130/4/6 127/4/6
f 123/4/2 130/4/2 113/4/2
f 113/4/4 129/4/4 111/4/4
f 134/5/9 146/5/9 135/5/9
f 131/6/10 149/6/10 150/6/10
f 147/7/11 138/7/11 137/7/11
f 135/8/12 149/6/12 132/6/12
f 187/9/13 141/9/13 142/9/13
f 185/10/14 147/10/14 186/10/14
f 144/11/15 143/11/15 145/11/15
f 141/12/16 143/12/16 139/12/16
f 141/13/17 144/13/17 145/13/17
f 147/12/11 137/12/11 144/12/11
f 135/8/9 146/8/9 148/8/9
f 188/10/18 147/10/18 141/10/18
f 149/8/4 148/8/4 150/8/4
f 152/5/10 167/5/10 153/5/10
f 168/6/9 171/6/9 172/6/9
f 169/7/16 157/7/16 156/7/16
f 198/9/19 155/9/19 199/9/19
f 198/10/20 154/10/20 168/10/20
f 159/7/21 157/7/21 158/7/21
f 177/10/22 132/10/22 131/10/22
f 189/9/23 161/9/23 162/9/23
f 190/10/24 169/10/24 191/14/24
f 176/14/25 163/10/25 132/10/25
f 165/11/26 164/11/26 166/11/26
f 161/12/11 164/12/11 159/12/11
f 156/12/27 159/12/27 164/12/27
f 169/12/16 156/12/16 165/12/16
f 168/6/12 170/6/12 167/6/12
f 153/8/10 167/8/10 170/8/10
f 192/10/28 169/10/28 161/10/28
f 171/8/4 170/8/4 172/8/4
f 134/15/29 132/15/29 163/15/29
f 159/10/30 182/10/30 175/16/30
f 161/10/31 175/16/31 173/10/31
f 175/16/32 181/10/32 173/10/32
f 176/14/33 180/10/33 178/14/33
f 131/10/34 184/10/34 179/10/34
f 133/10/35 184/10/35 146/10/35
f 136/9/36 179/17/36 174/9/36
f 155/9/23 195/9/23 193/9/23
f 151/10/24 194/14/24 167/10/24
f 168/10/28 194/14/28 195/10/28
f 187/18/37 186/18/37 188/18/37
f 141/9/38 202/9/38 142/9/38
f 141/10/39 200/10/39 201/10/39
f 194/19/40 193/19/40 195/19/40
f 188/20/41 141/20/41 203/20/41
f 201/20/42 203/20/42 141/20/42
f 179/20/43 204/20/43 131/20/43
f 204/20/44 177/20/44 131/20/44
f 198/20/45 168/20/45 206/20/45
f 195/21/46 206/21/46 168/21/46
f 192/20/47 161/20/47 205/20/47
f 161/20/48 173/20/48 205/20/48
f 12/1/6 209/1/6 208/1/6
f 9/1/7 210/1/7 18/1/7
f 200/10/16 202/10/16 201/10/16
f 212/22/32 198/22/32 199/22/32
f 7/1/1 19/1/1 20/1/1
f 2/1/2 1/1/2 6/1/2
f 2/1/2 7/1/2 8/1/2
f 4/1/2 8/1/2 5/1/2
f 15/2/2 16/2/2 13/2/2
f 17/1/3 19/1/3 32/1/3
f 1/1/4 14/1/4 13/1/4
f 20/3/4 19/3/4 17/3/4
f 17/1/5 12/1/5 9/1/5
f 3/1/6 13/1/6 16/1/6
f 2/1/7 15/1/7 14/1/7
f 36/1/8 33/1/8 20/1/8
f 11/1/2 20/1/2 33/1/2
f 22/1/6 21/1/6 30/1/6
f 22/1/6 31/1/6 32/1/6
f 24/1/6 32/1/6 29/1/6
f 28/1/7 27/1/7 34/1/7
f 26/1/7 28/1/7 33/1/7
f 26/1/7 36/1/7 35/1/7
f 21/1/4 38/1/4 37/1/4
f 25/1/2 41/1/2 42/1/2
f 27/1/4 40/1/4 41/1/4
f 22/1/2 39/1/2 38/1/2
f 8/1/7 20/1/7 11/1/7
f 10/1/2 29/1/2 32/1/2
f 7/1/6 6/1/6 10/1/6
f 54/4/6 51/4/6 60/4/6
f 51/4/6 52/4/6 48/4/6
f 53/4/6 47/4/6 48/4/6
f 54/4/6 43/4/6 47/4/6
f 54/4/2 55/4/2 56/4/2
f 52/4/4 51/4/4 56/4/4
f 45/4/7 61/4/7 50/4/7
f 48/4/4 50/4/4 61/4/4
f 59/4/2 58/4/2 45/4/2
f 44/4/2 60/4/2 61/4/2
f 59/4/2 43/4/2 60/4/2
f 58/4/2 46/4/2 61/4/2
f 63/4/2 64/4/2 65/4/2
f 58/4/7 62/4/7 65/4/7
f 46/4/4 65/4/4 64/4/4
f 44/4/6 64/4/6 63/4/6
f 71/4/2 72/4/2 70/4/2
f 74/4/2 79/4/2 80/4/2
f 76/4/7 73/4/7 82/4/7
f 73/4/7 74/4/7 70/4/7
f 75/4/7 69/4/7 70/4/7
f 76/4/7 66/4/7 69/4/7
f 79/4/7 78/4/7 77/4/7
f 73/4/4 78/4/4 79/4/4
f 82/4/4 70/4/4 72/4/4
f 67/4/4 68/4/4 86/4/4
f 67/4/7 85/4/7 84/4/7
f 93/4/6 94/4/6 92/4/6
f 96/4/6 101/4/6 102/4/6
f 98/4/2 95/4/2 105/4/2
f 95/4/2 96/4/2 92/4/2
f 97/4/2 91/4/2 92/4/2
f 98/4/2 87/4/2 91/4/2
f 101/4/2 100/4/2 99/4/2
f 98/4/7 99/4/7 100/4/7
f 95/4/4 100/4/4 101/4/4
f 105/4/4 92/4/4 94/4/4
f 104/4/7 103/4/7 89/4/7
f 88/4/7 105/4/7 106/4/7
f 88/4/7 104/4/7 87/4/7
f 90/4/7 106/4/7 89/4/7
f 90/4/4 109/4/4 108/4/4
f 88/4/2 108/4/2 107/4/2
f 119/4/6 120/4/6 121/4/6
f 117/4/4 121/4/4 122/4/4
f 112/4/2 126/4/2 116/4/2
f 114/4/4 116/4/4 126/4/4
f 124/4/6 123/4/6 112/4/6
f 111/4/6 125/4/6 126/4/6
f 111/4/6 124/4/6 110/4/6
f 113/4/6 126/4/6 112/4/6
f 128/4/6 129/4/6 130/4/6
f 123/4/2 127/4/2 130/4/2
f 113/4/4 130/4/4 129/4/4
f 134/5/9 133/5/9 146/5/9
f 131/6/10 132/6/10 149/6/10
f 147/7/11 140/7/11 138/7/11
f 187/9/13 188/9/13 141/9/13
f 185/10/14 140/10/14 147/10/14
f 144/11/15 137/11/15 143/11/15
f 141/12/16 145/12/16 143/12/16
f 141/13/17 147/13/17 144/13/17
f 188/10/18 186/10/18 147/10/18
f 149/8/4 135/8/4 148/8/4
f 152/5/10 151/5/10 167/5/10
f 168/6/9 154/6/9 171/6/9
f 169/7/16 160/7/16 157/7/16
f 198/9/49 168/9/49 155/9/49
f 198/10/50 197/10/50 154/10/50
f 159/7/51 156/7/51 157/7/51
f 177/10/52 176/14/52 132/10/52
f 189/9/23 192/9/23 161/9/23
f 190/10/24 160/10/24 169/10/24
f 176/14/53 178/10/53 163/10/53
f 165/11/26 156/11/26 164/11/26
f 161/12/11 166/12/11 164/12/11
f 168/6/12 172/6/12 170/6/12
f 192/10/28 191/14/28 169/10/28
f 171/8/4 153/8/4 170/8/4
f 134/15/54 135/15/54 132/15/54
f 159/10/55 158/10/55 182/10/55
f 161/10/56 159/10/56 175/16/56
f 175/16/32 182/16/32 181/10/32
f 176/14/57 177/10/57 180/10/57
f 131/10/34 146/10/34 184/10/34
f 133/10/58 183/23/58 184/10/58
f 136/9/59 131/9/59 179/17/59
f 155/9/23 168/9/23 195/9/23
f 151/10/24 196/10/24 194/14/24
f 168/10/28 167/10/28 194/14/28
f 187/18/60 185/18/60 186/18/60
f 141/9/61 201/24/61 202/9/61
f 141/10/62 139/10/62 200/10/62
f 194/19/63 196/19/63 193/19/63
f 12/1/6 17/1/6 209/1/6
f 9/1/7 207/1/7 210/1/7
f 200/10/16 211/10/16 202/10/16
f 212/22/32 197/22/32 198/22/32
l 66 81
l 83 68
l 67 82
